<mxfile host="Electron" modified="2023-10-25T22:42:22.113Z" agent="Mozilla/5.0 (Windows NT 10.0; Win64; x64) AppleWebKit/537.36 (KHTML, like Gecko) draw.io/22.0.2 Chrome/114.0.5735.289 Electron/25.8.4 Safari/537.36" etag="kAFJl3OjmAfbjrurnz19" version="22.0.2" type="device" pages="2">
  <diagram id="oB7OM2gKpSOZqcmazCuE" name="类适配器">
    <mxGraphModel dx="1418" dy="820" grid="1" gridSize="10" guides="1" tooltips="1" connect="1" arrows="1" fold="1" page="1" pageScale="1" pageWidth="827" pageHeight="1169" math="0" shadow="0">
      <root>
        <mxCell id="0" />
        <mxCell id="1" parent="0" />
        <mxCell id="tjlmVGTLbZt51xcolTaS-1" value="Main" style="html=1;whiteSpace=wrap;" parent="1" vertex="1">
          <mxGeometry x="150" y="200" width="110" height="50" as="geometry" />
        </mxCell>
        <mxCell id="tjlmVGTLbZt51xcolTaS-2" value="&lt;p style=&quot;margin:0px;margin-top:4px;text-align:center;&quot;&gt;&lt;i&gt;&amp;lt;&amp;lt;Interface&amp;gt;&amp;gt;&lt;/i&gt;&lt;br&gt;&lt;b&gt;Print&lt;/b&gt;&lt;/p&gt;&lt;hr size=&quot;1&quot;&gt;&lt;p style=&quot;margin:0px;margin-left:4px;&quot;&gt;&lt;br&gt;&lt;br&gt;&lt;/p&gt;&lt;hr size=&quot;1&quot;&gt;&lt;p style=&quot;margin:0px;margin-left:4px;&quot;&gt;+ PrintWeak&lt;br&gt;+ PrintStrong&lt;/p&gt;" style="verticalAlign=top;align=left;overflow=fill;fontSize=12;fontFamily=Helvetica;html=1;whiteSpace=wrap;" parent="1" vertex="1">
          <mxGeometry x="120" y="370" width="190" height="140" as="geometry" />
        </mxCell>
        <mxCell id="tjlmVGTLbZt51xcolTaS-3" value="" style="endArrow=open;endFill=1;endSize=12;html=1;rounded=0;entryX=0.5;entryY=0;entryDx=0;entryDy=0;" parent="1" target="tjlmVGTLbZt51xcolTaS-2" edge="1">
          <mxGeometry width="160" relative="1" as="geometry">
            <mxPoint x="210" y="250" as="sourcePoint" />
            <mxPoint x="370" y="250" as="targetPoint" />
          </mxGeometry>
        </mxCell>
        <mxCell id="tjlmVGTLbZt51xcolTaS-4" value="Uses" style="text;html=1;strokeColor=none;fillColor=none;align=center;verticalAlign=middle;whiteSpace=wrap;rounded=0;" parent="1" vertex="1">
          <mxGeometry x="210" y="290" width="60" height="30" as="geometry" />
        </mxCell>
        <mxCell id="tjlmVGTLbZt51xcolTaS-5" value="&lt;p style=&quot;margin:0px;margin-top:4px;text-align:center;&quot;&gt;&lt;i&gt;&lt;b&gt;PrintBanner&lt;/b&gt;&lt;/i&gt;&lt;/p&gt;&lt;hr size=&quot;1&quot;&gt;&lt;p style=&quot;margin:0px;margin-left:4px;&quot;&gt;&lt;br&gt;&lt;br&gt;&lt;/p&gt;&lt;hr size=&quot;1&quot;&gt;&lt;p style=&quot;margin:0px;margin-left:4px;&quot;&gt;+ PrintWeak&lt;br&gt;+ PrintStrong&lt;/p&gt;" style="verticalAlign=top;align=left;overflow=fill;fontSize=12;fontFamily=Helvetica;html=1;whiteSpace=wrap;" parent="1" vertex="1">
          <mxGeometry x="470" y="360" width="190" height="140" as="geometry" />
        </mxCell>
        <mxCell id="tjlmVGTLbZt51xcolTaS-6" value="&lt;p style=&quot;margin:0px;margin-top:4px;text-align:center;&quot;&gt;&lt;b&gt;Banner&lt;/b&gt;&lt;/p&gt;&lt;hr size=&quot;1&quot;&gt;&lt;p style=&quot;margin:0px;margin-left:4px;&quot;&gt;&lt;br&gt;&lt;br&gt;&lt;/p&gt;&lt;hr size=&quot;1&quot;&gt;&lt;p style=&quot;margin:0px;margin-left:4px;&quot;&gt;+ PrintWeak&lt;br&gt;+ PrintStrong&lt;/p&gt;" style="verticalAlign=top;align=left;overflow=fill;fontSize=12;fontFamily=Helvetica;html=1;whiteSpace=wrap;" parent="1" vertex="1">
          <mxGeometry x="820" y="360" width="190" height="140" as="geometry" />
        </mxCell>
        <mxCell id="tjlmVGTLbZt51xcolTaS-7" value="" style="endArrow=block;dashed=1;endFill=0;endSize=12;html=1;rounded=0;" parent="1" edge="1">
          <mxGeometry width="160" relative="1" as="geometry">
            <mxPoint x="470" y="430" as="sourcePoint" />
            <mxPoint x="310" y="430" as="targetPoint" />
          </mxGeometry>
        </mxCell>
        <mxCell id="tjlmVGTLbZt51xcolTaS-10" value="" style="endArrow=block;endSize=16;endFill=0;html=1;rounded=0;" parent="1" edge="1">
          <mxGeometry width="160" relative="1" as="geometry">
            <mxPoint x="660" y="420" as="sourcePoint" />
            <mxPoint x="820" y="420" as="targetPoint" />
            <Array as="points">
              <mxPoint x="750" y="420" />
            </Array>
          </mxGeometry>
        </mxCell>
      </root>
    </mxGraphModel>
  </diagram>
  <diagram id="AG5ZWfmaAvRllu-kW9ha" name="原型模式">
    <mxGraphModel dx="1418" dy="820" grid="1" gridSize="10" guides="1" tooltips="1" connect="1" arrows="1" fold="1" page="1" pageScale="1" pageWidth="827" pageHeight="1169" math="0" shadow="0">
      <root>
        <mxCell id="0" />
        <mxCell id="1" parent="0" />
        <mxCell id="dbvnF-1LhtVEWF6ahI0x-1" value="Manage" style="swimlane;fontStyle=1;align=center;verticalAlign=top;childLayout=stackLayout;horizontal=1;startSize=26;horizontalStack=0;resizeParent=1;resizeParentMax=0;resizeLast=0;collapsible=1;marginBottom=0;whiteSpace=wrap;html=1;" vertex="1" parent="1">
          <mxGeometry x="130" y="330" width="160" height="120" as="geometry" />
        </mxCell>
        <mxCell id="dbvnF-1LhtVEWF6ahI0x-2" value="showCase" style="text;strokeColor=none;fillColor=none;align=left;verticalAlign=top;spacingLeft=4;spacingRight=4;overflow=hidden;rotatable=0;points=[[0,0.5],[1,0.5]];portConstraint=eastwest;whiteSpace=wrap;html=1;" vertex="1" parent="dbvnF-1LhtVEWF6ahI0x-1">
          <mxGeometry y="26" width="160" height="26" as="geometry" />
        </mxCell>
        <mxCell id="dbvnF-1LhtVEWF6ahI0x-3" value="" style="line;strokeWidth=1;fillColor=none;align=left;verticalAlign=middle;spacingTop=-1;spacingLeft=3;spacingRight=3;rotatable=0;labelPosition=right;points=[];portConstraint=eastwest;strokeColor=inherit;" vertex="1" parent="dbvnF-1LhtVEWF6ahI0x-1">
          <mxGeometry y="52" width="160" height="8" as="geometry" />
        </mxCell>
        <mxCell id="dbvnF-1LhtVEWF6ahI0x-4" value="register&lt;br&gt;" style="text;strokeColor=none;fillColor=none;align=left;verticalAlign=top;spacingLeft=4;spacingRight=4;overflow=hidden;rotatable=0;points=[[0,0.5],[1,0.5]];portConstraint=eastwest;whiteSpace=wrap;html=1;" vertex="1" parent="dbvnF-1LhtVEWF6ahI0x-1">
          <mxGeometry y="60" width="160" height="30" as="geometry" />
        </mxCell>
        <mxCell id="dbvnF-1LhtVEWF6ahI0x-6" value="create" style="text;strokeColor=none;fillColor=none;align=left;verticalAlign=top;spacingLeft=4;spacingRight=4;overflow=hidden;rotatable=0;points=[[0,0.5],[1,0.5]];portConstraint=eastwest;whiteSpace=wrap;html=1;" vertex="1" parent="dbvnF-1LhtVEWF6ahI0x-1">
          <mxGeometry y="90" width="160" height="30" as="geometry" />
        </mxCell>
      </root>
    </mxGraphModel>
  </diagram>
</mxfile>
